<svg width="94" height="94" viewBox="0 0 94 94" xmlns="http://www.w3.org/2000/svg"><title>foundryLogo</title><g fill="#E26029" fill-rule="evenodd"><path d="M46.675 86.897c-22.183 0-40.23-18.047-40.23-40.231 0-22.18 18.047-40.224 40.23-40.224 22.182 0 40.229 18.044 40.229 40.224 0 22.184-18.047 40.231-40.229 40.231zm0-86.897C20.939 0 0 20.934 0 46.666c0 25.738 20.939 46.676 46.675 46.676 25.734 0 46.671-20.938 46.671-46.676C93.346 20.934 72.409 0 46.675 0z"/><path d="M58.095 39.729L46.574 28.207c-1.353 1.356-4.093 4.094-6.68 6.682l-4.841 4.84a16.275 16.275 0 0 0-3.859 6.133c-2.001 5.724-.714 12.339 3.859 16.912a16.174 16.174 0 0 0 4.537 3.181c.099.047.203.09.304.137.367.166.74.324 1.117.457a9.4 9.4 0 0 1-.81-.594c-.103-.084-.204-.177-.307-.263-.158-.141-.31-.28-.46-.428-3.94-3.945-3.94-10.336 0-14.277.139-.141.296-.295.46-.461 1.85-1.852 5.346-5.348 6.68-6.682.571.566 1.265 1.26 2.018 2.018a3505.33 3505.33 0 0 1 5.121 5.125c3.941 3.941 3.941 10.332 0 14.277a9.677 9.677 0 0 1-1.575 1.285 16.125 16.125 0 0 0 5.957-3.775c6.364-6.364 6.364-16.682 0-23.045"/><path d="M31.762 38.656l1.3 1.297 6.291-6.322-1.312-1.308h.001c-2.485-2.485-4.943-4.946-6.681-6.682-2.348 2.347-8.836 8.838-11.52 11.523-6.364 6.36-6.364 16.68 0 23.043a16.206 16.206 0 0 0 5.957 3.778 10 10 0 0 1-1.574-1.289c-3.943-3.942-3.757-12.291.183-16.233.911-.911 4.901-5.228 7.355-7.807M73.504 37.164c-2.681-2.685-9.175-9.176-11.524-11.523-1.734 1.736-4.195 4.197-6.676 6.682h.001l-1.313 1.308 6.291 6.322 1.3-1.296c2.453 2.578 6.441 6.895 7.352 7.806 3.946 3.942 4.132 12.291.187 16.233-.487.49-1.018.918-1.571 1.289a16.249 16.249 0 0 0 5.953-3.778c6.365-6.363 6.365-16.683 0-23.043"/></g></svg>
