<svg xmlns="http://www.w3.org/2000/svg" viewBox="0 0 146 54">
  <g fill="#58595B">
    <path d="M128.182 47.92q1.145-1.2 1.145-3.024v-1.792q0-1.818-1.148-3.021-1.149-1.203-2.974-1.203-1.784 0-2.902 1.203t-1.118 3.021v1.792q0 1.825 1.118 3.024 1.118 1.2 2.909 1.2 1.825 0 2.97-1.2zm10.702-3.024q0 1.825-1.145 3.024-1.145 1.2-2.97 1.2-1.792 0-2.91-1.2-1.117-1.2-1.117-3.024v-1.792q0-1.818 1.118-3.021 1.117-1.203 2.902-1.203 1.825 0 2.973 1.203 1.149 1.203 1.149 3.021v1.792zM65.5 46.324v.014l.007-.034 1.99-7.28h1.325l2.01 7.3.007.048.007-.068 1.572-7.28h1.634l-2.365 9.953h-1.511l-1.99-7.144h-.04l-1.997 7.144h-1.517l-2.359-9.954h1.634l1.593 7.301zm15.367.328h-3.896l-.793 2.325h-1.682l3.657-9.954h1.573l3.616 9.954h-1.689l-.786-2.325zm7.424-6.296h3.008v-1.333h-7.677v1.333h3.008v8.62h1.661v-8.62zM98.613 44.5H94.26v3.145h5.051v1.333h-6.712v-9.954h6.665v1.333h-5.004v2.81h4.354v1.333zm3.76 4.478v-4.13h2.215q.765 0 1.203.452.437.451.437 1.217v.8q0 .464.08.95.078.485.351.71h1.71v-.157q-.26-.218-.37-.635-.11-.417-.11-.855v-.827q0-.882-.369-1.487-.369-.605-1.21-.871.766-.335 1.166-.893.4-.557.4-1.33 0-1.394-.91-2.146-.908-.752-2.576-.752h-3.678v9.954h1.661zm17.896-8.62h-3.007v8.62H115.6v-8.62h-3.008v-1.334h7.676v1.333zm26.647 7.287h-4.573v-8.62h-1.661v9.953h6.234v-1.333zm-19.91-6.597q.667.8.667 2.044v1.805q0 1.264-.66 2.064t-1.801.8q-1.1 0-1.736-.803-.636-.804-.636-2.061V43.09q0-1.244.636-2.044.635-.8 1.73-.8 1.134 0 1.8.8zm10.223 2.044q0-1.244-.666-2.044t-1.801-.8q-1.094 0-1.73.8-.636.8-.636 2.044v1.805q0 1.257.636 2.06.636.804 1.737.804 1.141 0 1.8-.8.66-.8.66-2.064V43.09zm-32.928.424h-1.928v-3.159h2.017q.922 0 1.374.428.45.427.45 1.179 0 .786-.457 1.169-.458.383-1.456.383zm-26.852 1.75h2.946l-1.442-4.252h-.04l-1.464 4.252zM93.386 25.021l-.026-.076h-3.592q0 1.841-.832 2.774-.831.933-2.57.933-1.753 0-2.781-1.35-1.028-1.351-1.028-3.47v-3.69q0-2.093.977-3.444.978-1.35 2.64-1.35 1.854 0 2.73.97.876.972.876 2.8h3.606l.025-.076q.05-3.034-1.879-4.792-1.93-1.759-5.357-1.759-3.25 0-5.281 2.158-2.032 2.159-2.032 5.523v3.669q0 3.377 2.082 5.522 2.082 2.146 5.421 2.146 3.326 0 5.199-1.752 1.873-1.752 1.822-4.735zm-30.66-12.263v18.484h7.123q3.211 0 4.963-1.365 1.753-1.364 1.753-4.018 0-1.536-.832-2.704-.832-1.168-2.495-1.523 1.295-.508 1.974-1.517.68-1.01.68-2.292 0-2.526-1.829-3.796-1.828-1.27-5.09-1.27h-6.246zm6.374 7.744h-2.666v-4.888h2.539q1.6 0 2.405.61.807.609.807 1.891 0 1.168-.8 1.778-.8.609-2.285.609zm-2.666 7.884v-5.32h3.694q1.422 0 2.082.716.66.716.66 2.07 0 1.255-.774 1.894-.775.64-2.247.64h-3.415z"/>
  </g>
  <g fill="#FCBA19">
    <path d="M0 26.963c0 14.87 12.096 26.965 26.965 26.965S53.93 41.832 53.93 26.963C53.93 12.095 41.834 0 26.965 0 12.096 0 0 12.095 0 26.963zm3.723 0c0-12.815 10.426-23.241 23.242-23.241 12.817 0 23.243 10.426 23.243 23.24 0 12.817-10.426 23.244-23.243 23.244-12.816 0-23.242-10.427-23.242-23.243z" fill-rule="evenodd"/>
    <path d="M19.87 32.924l.152-.416c.257-.54.887-.17 1.181-.469-.343.096-.755.356-1.035-.207.01-.536-.027-1.058-.471-1.447-.533-.173-.098-.492-.114-.743.09-.215-.054-.502.206-.665.178-.086.408-.143.225-.415-.146.07-.286.08-.426.007-.339-.352-.363-.83-.505-1.26-.014-.207.012-.398.208-.52.099-.116.256-.175.065-.39-.286-.317-.209-.711.106-.95.91-.687 1.227-1.738 1.7-2.685.278-.559-.216-1.03-.506-1.375-.71-.846-.78-1.715-.784-2.791-.005-1.424.241-2.88-.244-4.323-.193-.575-.525-1.287-.18-1.996.08-.165.023-.483-.195-.566-.35-.134-.73-.218-1.076.065-.433.354-.907.595-1.494.495-.134-.022-.357.008-.294-.196.25-.81-.273-1.54-.21-2.325.007-.094.026-.186.04-.286.251-.067.402.126.575.226 5.87 3.378 12.06 5.998 18.59 7.8.716.198.804.466.6 1.143-1.18 3.908-2.31 7.832-3.462 11.748-.187.637-.328 1.274-.318 1.946.007.507.403.854.688 1.008.67.365.672.975.808 1.54.07.292-.02.565.41.695.327.098.203.601.553.874.425.331.72.908.985 1.403.54 1.015.941 2.093 1.687 3.005.358.438.275 1.053.164 1.594-.119.584-.135 1.131.273 1.613.097.114.223.239.136.371-.113.17-.304.06-.46.032a98.509 98.509 0 01-6.727-1.443 192.297 192.297 0 01-5.052-1.363c-.525-.147-1.062-.309-1.036-1.051.009-.256-.31-.335-.49-.483-.07-.192-.214-.344-.232-.57-.023-.29-.24-.29-.465-.226-.29-.37-.535-.75-.27-1.24-.08-.394-.496-.454-.71-.714-.171-.267-.423-.42-.721-.502-.417-.113-.49-.373-.335-.74.261-.825-.518-.574-.83-.803-.68-.36-.916-.853-.466-1.552-.06-.092.369-.162 0-.29-.23-.08-.14-.382-.245-.563z"/>
    <path d="M22.434 38.524c.017.726.325 1.26.882 1.762.55.496.58 1.29.61 2.001.015.34-.388.38-.593.27-.68-.362-1.397-.853-1.649-1.514-.162-.425-.187-.7-.656-.8-.106-.024-.213-.23-.147-.368.125-.263-.017-.407-.188-.546-.498-.407-.807-.874-.783-1.57.009-.266-.324-.612-.494-.762-.457-.403-.465-.952-.71-1.411-.124-.233-.273-.53-.003-.707.284-.187.602-.07.835.185.304.332.601.671.901 1.007.65.143 1.094.65 1.66.94.329.169.285.498.34.784-.063.243-.144.485-.005.729zM15.426 27.197c.279-.478-.145-.934-.041-1.424.063-.299.123-.585.374-.724.262-.146.39.167.579.285.295.183.517.513.984.51-.596.4-.645 1.2-1.295 1.514-.268.202-.465.133-.6-.16z"/>
    <path d="M15.426 27.197l.601.16c.247.165.503.362.364.687-.297.7-.347 1.41-.254 2.171-.297-1-.867-1.918-.71-3.018zM22.336 37.735c-.362-.861-1.298-1.071-1.897-1.664.295.023.58-.016.854-.129.305-.138.365.232.581.28.023.002.05-.001.069.01.036.02.096.07.095.071-.1.14-.33.004-.429.236.3.25.961.056.968.698.115.26.03.424-.24.498zM20.288 31.779c.608.378.99-.183 1.507-.376-.238.275-.054.52-.027.767-.624-.105-1.088.616-1.746.338-.236-.233-.04-.482-.026-.724.095-.094.194-.052.292-.005z"/>
    <path d="M20.288 31.779l-.292.005c-.108-.465-.67-.833-.3-1.4 1.025.086 1.081.22.592 1.395zM19.866 29.084c-.026.22-.094.42-.283.558-.32-.218-.789-.303-.752-.84.058-.162.098-.336.267-.43.219-.088.4.077.605.088l.295-.26c.27.342.173.629-.132.884zM22.336 37.735l.241-.498c.35.058.652.332 1.138.128l-.54.723c-.225.182-.786-.206-.741.436-.178-.245-.135-.517-.098-.789zM19.87 32.924c.239.08.31.604.75.208.184-.164.389.245.621.384-.42-.052-.789.043-1.127.261-.155-.263-.546-.46-.245-.853z"/>
    <path d="M19.155 28.529c-.058.15-.183.22-.324.272-.245-.236-.28-.572-.402-.865-.103-.245-.065-.46.274-.476.264.093.4.331.58.52.126.222-.008.384-.128.549zM21.874 36.222l-.581-.28c-.037-.437-.654-.201-.714-.613.864-.329 1.075.29 1.295.893z"/>
    <path d="M19.143 28.068c-.28-.106-.434-.303-.44-.608.251-.176-.302-1.055.589-.672l-.006.558c-.112.229.128.526-.143.722zM23.446 39.328c.151-.143.308-.34.534-.248.255.103.133.358.14.557.006.162.015.324.023.487-.373-.143-.367-.616-.697-.796zM19.866 29.084l.132-.883c.183-.06.395-.317.541-.018.079.16.363.435-.172.565-.268.065.162.533.046.852-.247-.12-.228-.501-.547-.516z"/>
    <path d="M19.143 28.068c-.041-.21-.106-.418-.12-.63-.017-.274.137-.169.263-.092l.417 1.114c-.159.216-.316.442-.548.068l-.012-.46z"/>
  </g>
</svg>
